<?xml version="1.0" encoding="UTF-8"?>
<svg width="793" height="316" viewBox="0 0 793 316" xmlns="http://www.w3.org/2000/svg" xmlns:xlink="http://www.w3.org/1999/xlink">
    <g id="Layerx00201">
        <g id="105553172643520">
            <path id="Path" fill="#211915" stroke="none" d="M 782.830139 161.429871 L 761.417175 147.063904 L 745.150085 102.125305 C 742.316162 94.298645 735.120789 88.889038 726.812256 88.343994 L 501.015686 73.535828 L 434.207642 26.650391 C 400.432648 2.948608 358.038818 -5.183838 317.891907 4.340576 L 268.575104 16.042786 C 215.724472 28.580994 164.954834 48.761353 117.985512 75.644775 C 117.329391 75.582092 116.667213 75.54425 115.994461 75.54425 L 59.69915 75.543884 L 40.67981 56.524536 C 32.494865 48.3396 19.223055 48.3396 11.035842 56.524536 C 2.850898 64.709473 2.850898 77.981262 11.035842 86.168518 L 36.194267 111.326965 C 40.124222 115.256897 45.456375 117.466003 51.015308 117.466003 L 55.035591 117.466003 C 42.794834 126.833191 30.918802 136.701172 19.46419 147.065796 C 15.073133 151.039917 12.566174 156.684326 12.566174 162.607544 L 12.566174 179.924622 L -0.969827 207.246399 C -2.403402 210.138916 -3.149858 213.324646 -3.149858 216.552765 C -3.149858 242.555908 18.005291 263.710693 44.008064 263.710693 L 130.690781 263.71106 C 132.837921 259.676056 129.668793 244.66153 135.119629 229.768616 C 142.112503 210.663513 159.991547 195.692444 172.03804 190.252502 C 186.376068 183.777832 195.541794 184.79071 205.17128 186.387207 C 222.685974 189.291016 227.227829 195.170837 237.496063 204.803345 C 253.362137 219.687103 256.974243 252.913727 258.961151 262.184509 L 545.247864 263.71106 C 547.551147 239.07077 552.309937 225.593353 565.261597 208.344788 C 575.668945 194.485229 591.417419 189.869263 608.29187 189.136841 C 625.678467 190.15387 634.24176 190.43927 650.606384 202.086609 C 667.951416 214.431305 680.575012 247.831757 680.611267 263.856934 L 740.962402 263.71106 C 761.993591 263.71106 780.660706 249.571442 786.359802 229.323792 L 795.655579 196.274048 C 799.372009 183.073364 794.217834 169.069763 782.830139 161.429871 Z M 746.007629 217.969696 C 745.374573 220.218903 743.30188 221.790802 740.964661 221.790802 L 688.912292 221.790802 C 679.669067 187.655212 648.438416 162.465454 611.420593 162.465454 C 574.402771 162.465454 543.170288 187.655212 533.928955 221.790802 L 274.988617 221.790802 C 265.745392 187.655212 234.514771 162.465454 197.496948 162.465454 C 160.479111 162.465454 124.667336 187.655212 115.426018 221.790802 L 44.008442 221.790802 C 42.235085 221.790802 40.663181 220.904144 39.715656 219.552216 L 52.310555 194.135986 C 53.744125 191.24353 54.490582 188.0578 54.490582 184.829651 L 54.490582 172.016724 C 118.439812 116.191589 195.61058 76.434692 278.249939 56.830688 L 327.566742 45.12854 C 356.066254 38.366943 386.154327 44.141296 410.126343 60.963989 L 481.740479 111.224121 C 484.884674 113.431396 488.575348 114.730774 492.409332 114.982117 L 710.393921 129.278931 L 724.33252 167.784729 C 725.849915 171.974731 728.662659 175.573608 732.362427 178.055237 L 753.28479 192.092041 L 746.007629 217.969696 Z"/>
        </g>
        <path id="rearwheel" fill="none" stroke="#2b2b2a" stroke-width="30.236221" stroke-linecap="round" stroke-linejoin="round" d="M 236.77832 256.627869 C 236.77832 268.155334 232.199036 279.210754 224.047852 287.361908 C 215.896667 295.513153 204.841278 300.092407 193.313751 300.092407 C 181.786255 300.092407 170.73085 295.513153 162.579681 287.361908 C 154.428482 279.210754 149.849197 268.155334 149.849197 256.627869 C 149.849197 245.100281 154.428482 234.044952 162.579681 225.893738 C 170.73085 217.742554 181.786255 213.1633 193.313751 213.1633 C 204.841278 213.1633 215.896667 217.742554 224.047852 225.893738 C 232.199036 234.044952 236.77832 245.100281 236.77832 256.627869 Z"/>
        <path id="frontwheel" fill="none" stroke="#2b2b2a" stroke-width="30.236221" stroke-linecap="round" stroke-linejoin="round" d="M 653.701782 256.29071 C 653.701782 267.818207 649.122498 278.873627 640.971313 287.02478 C 632.820129 295.175995 621.764771 299.75528 610.237244 299.75528 C 598.709717 299.75528 587.654358 295.175995 579.503174 287.02478 C 571.351929 278.873627 566.772705 267.818207 566.772705 256.29071 C 566.772705 244.763153 571.351929 233.707825 579.503174 225.55658 C 587.654358 217.405426 598.709717 212.826141 610.237244 212.826141 C 621.764771 212.826141 632.820129 217.405426 640.971313 225.55658 C 649.122498 233.707825 653.701782 244.763153 653.701782 256.29071 Z"/>
    </g>
</svg>
